{
  "source": "C:\\Users\\Peter\\Desktop\\stuff\\MIUN\\quantitative_research\\video_compression\\videos\\BVI-HD\\BVI-HD_CDVL_videos\\ORIG\\Rowing_1920x1080_30fps.mp4",
  "output": "C:\\Users\\Peter\\Desktop\\stuff\\MIUN\\quantitative_research\\video_compression\\compressed_videos\\BVI-HD\\vp9\\2\\Rowing_1920x1080_30fps_vp9.webm",
  "codec": "vp9",
  "ok": "Input #0, mov,mp4,m4a,3gp,3g2,mj2, from 'C:\\Users\\Peter\\Desktop\\stuff\\MIUN\\quantitative_research\\video_compression\\videos\\BVI-HD\\BVI-HD_CDVL_videos\\ORIG\\Rowing_1920x1080_30fps.mp4':\n  Metadata:\n    major_brand     : isom\n    minor_version   : 512\n    compatible_brands: isomiso2avc1mp41\n    encoder         : Lavf54.28.101\n  Duration: 00:00:05.00, start: 0.000000, bitrate: 259220 kb/s\n  Stream #0:0[0x1](und): Video: h264 (High 4:4:4 Predictive) (avc1 / 0x31637661), yuv420p(progressive), 1920x1080, 259216 kb/s, 30 fps, 30 tbr, 30 tbn (default)\n    Metadata:\n      handler_name    : VideoHandler\n      vendor_id       : [0][0][0][0]\n[out#0/webm @ 000002cbb2d99700] Codec AVOption b:a (set bitrate (in bits/s)) has not been used for any stream. The most likely reason is either wrong type (e.g. a video option with no video streams) or that it is a private option of some decoder which was not actually used for any stream.\nStream mapping:\n  Stream #0:0 -> #0:0 (h264 (native) -> vp9 (libvpx-vp9))\nPress [q] to stop, [?] for help\n[libvpx-vp9 @ 000002cbb3900440] v1.15.2-100-g40561f514\nOutput #0, webm, to 'C:\\Users\\Peter\\Desktop\\stuff\\MIUN\\quantitative_research\\video_compression\\compressed_videos\\BVI-HD\\vp9\\2\\Rowing_1920x1080_30fps_vp9.webm':\n  Metadata:\n    major_brand     : isom\n    minor_version   : 512\n    compatible_brands: isomiso2avc1mp41\n    encoder         : Lavf62.3.100\n  Stream #0:0(und): Video: vp9, yuv420p(tv, progressive), 1920x1080, q=2-31, 2000 kb/s, 30 fps, 1k tbn (default)\n    Metadata:\n      encoder         : Lavc62.11.100 libvpx-vp9\n      handler_name    : VideoHandler\n      vendor_id       : [0][0][0][0]\n    Side data:\n      cpb: bitrate max/min/avg: 0/0/0 buffer size: 2000000 vbv_delay: N/A\nframe=    0 fps=0.0 q=0.0 size=       0KiB time=N/A bitrate=N/A speed=N/A elapsed=0:00:00.53    \nframe=    3 fps=2.6 q=54.0 size=       1KiB time=00:00:00.10 bitrate=  50.7kbits/s speed=0.0858x elapsed=0:00:01.16    \nframe=    6 fps=3.5 q=63.0 size=       1KiB time=00:00:00.20 bitrate=  25.4kbits/s speed=0.118x elapsed=0:00:01.69    \nframe=   10 fps=4.5 q=63.0 size=       1KiB time=00:00:00.33 bitrate=  15.2kbits/s speed=0.149x elapsed=0:00:02.23    \nframe=   13 fps=4.7 q=63.0 size=       1KiB time=00:00:00.43 bitrate=  11.7kbits/s speed=0.157x elapsed=0:00:02.76    \nframe=   17 fps=5.2 q=63.0 size=       1KiB time=00:00:00.56 bitrate=   9.0kbits/s speed=0.173x elapsed=0:00:03.28    \nframe=   20 fps=5.2 q=63.0 size=       1KiB time=00:00:00.66 bitrate=   7.6kbits/s speed=0.175x elapsed=0:00:03.81    \nframe=   23 fps=5.3 q=63.0 size=       1KiB time=00:00:00.76 bitrate=   6.6kbits/s speed=0.176x elapsed=0:00:04.35    \nframe=   26 fps=5.3 q=63.0 size=       1KiB time=00:00:00.86 bitrate=   5.9kbits/s speed=0.178x elapsed=0:00:04.86    \nframe=   30 fps=5.6 q=63.0 size=       1KiB time=00:00:01.00 bitrate=   5.1kbits/s speed=0.185x elapsed=0:00:05.39    \nframe=   32 fps=5.4 q=63.0 size=       1KiB time=00:00:01.06 bitrate=   4.8kbits/s speed=0.18x elapsed=0:00:05.93    \nframe=   35 fps=5.4 q=63.0 size=       1KiB time=00:00:01.16 bitrate=   4.3kbits/s speed=0.181x elapsed=0:00:06.44    \nframe=   39 fps=5.6 q=63.0 size=       1KiB time=00:00:01.30 bitrate=   3.9kbits/s speed=0.187x elapsed=0:00:06.96    \nframe=   41 fps=5.5 q=52.0 size=       1KiB time=00:00:01.36 bitrate=   3.7kbits/s speed=0.182x elapsed=0:00:07.49    \nframe=   44 fps=5.5 q=63.0 size=       1KiB time=00:00:01.46 bitrate=   3.5kbits/s speed=0.183x elapsed=0:00:08.01    \nframe=   46 fps=5.4 q=63.0 size=       1KiB time=00:00:01.53 bitrate=   3.3kbits/s speed=0.18x elapsed=0:00:08.53    \nframe=   50 fps=5.5 q=63.0 size=       1KiB time=00:00:01.66 bitrate=   3.0kbits/s speed=0.184x elapsed=0:00:09.05    \nframe=   53 fps=5.5 q=53.0 size=       1KiB time=00:00:01.76 bitrate=   2.9kbits/s speed=0.184x elapsed=0:00:09.58    \nframe=   56 fps=5.5 q=63.0 size=       1KiB time=00:00:01.86 bitrate=   2.7kbits/s speed=0.185x elapsed=0:00:10.10    \nframe=   59 fps=5.6 q=53.0 size=       1KiB time=00:00:01.96 bitrate=   2.6kbits/s speed=0.185x elapsed=0:00:10.62    \nframe=   63 fps=5.6 q=63.0 size=       1KiB time=00:00:02.10 bitrate=   2.4kbits/s speed=0.188x elapsed=0:00:11.15    \nframe=   65 fps=5.6 q=52.0 size=       1KiB time=00:00:02.16 bitrate=   2.3kbits/s speed=0.185x elapsed=0:00:11.68    \nframe=   69 fps=5.6 q=63.0 size=       1KiB time=00:00:02.30 bitrate=   2.2kbits/s speed=0.188x elapsed=0:00:12.21    \nframe=   72 fps=5.6 q=63.0 size=       1KiB time=00:00:02.40 bitrate=   2.1kbits/s speed=0.188x elapsed=0:00:12.74    \nframe=   75 fps=5.6 q=63.0 size=       1KiB time=00:00:02.50 bitrate=   2.0kbits/s speed=0.188x elapsed=0:00:13.29    \nframe=   78 fps=5.6 q=63.0 size=       1KiB time=00:00:02.60 bitrate=   2.0kbits/s speed=0.188x elapsed=0:00:13.81    \nframe=   82 fps=5.7 q=62.0 size=       1KiB time=00:00:02.73 bitrate=   1.9kbits/s speed=0.191x elapsed=0:00:14.32    \nframe=   85 fps=5.7 q=62.0 size=       1KiB time=00:00:02.83 bitrate=   1.8kbits/s speed=0.191x elapsed=0:00:14.84    \nframe=   88 fps=5.7 q=63.0 size=       1KiB time=00:00:02.93 bitrate=   1.7kbits/s speed=0.191x elapsed=0:00:15.37    \nframe=   92 fps=5.8 q=63.0 size=       1KiB time=00:00:03.06 bitrate=   1.7kbits/s speed=0.193x elapsed=0:00:15.90    \nframe=   94 fps=5.7 q=63.0 size=       1KiB time=00:00:03.13 bitrate=   1.6kbits/s speed=0.191x elapsed=0:00:16.41    \nframe=   98 fps=5.8 q=63.0 size=       1KiB time=00:00:03.26 bitrate=   1.6kbits/s speed=0.193x elapsed=0:00:16.93    \nframe=  101 fps=5.8 q=51.0 size=       1KiB time=00:00:03.36 bitrate=   1.5kbits/s speed=0.193x elapsed=0:00:17.44    \nframe=  105 fps=5.8 q=63.0 size=       1KiB time=00:00:03.50 bitrate=   1.4kbits/s speed=0.195x elapsed=0:00:17.95    \nframe=  108 fps=5.8 q=63.0 size=       1KiB time=00:00:03.60 bitrate=   1.4kbits/s speed=0.195x elapsed=0:00:18.47    \nframe=  112 fps=5.9 q=62.0 size=       1KiB time=00:00:03.73 bitrate=   1.4kbits/s speed=0.197x elapsed=0:00:18.99    \nframe=  116 fps=5.9 q=62.0 size=       1KiB time=00:00:03.86 bitrate=   1.3kbits/s speed=0.198x elapsed=0:00:19.52    \nframe=  120 fps=6.0 q=63.0 size=       1KiB time=00:00:04.00 bitrate=   1.3kbits/s speed= 0.2x elapsed=0:00:20.04    \nframe=  123 fps=6.0 q=63.0 size=       1KiB time=00:00:04.10 bitrate=   1.2kbits/s speed=0.199x elapsed=0:00:20.58    \nframe=  126 fps=6.0 q=62.0 size=       1KiB time=00:00:04.20 bitrate=   1.2kbits/s speed=0.199x elapsed=0:00:21.10    \nframe=  126 fps=5.8 q=62.0 size=       1KiB time=00:00:04.20 bitrate=   1.2kbits/s speed=0.194x elapsed=0:00:21.62    \nframe=  126 fps=5.7 q=62.0 size=       1KiB time=00:00:04.20 bitrate=   1.2kbits/s speed=0.19x elapsed=0:00:22.15    \nframe=  126 fps=5.6 q=62.0 size=       1KiB time=00:00:04.20 bitrate=   1.2kbits/s speed=0.185x elapsed=0:00:22.65    \nframe=  126 fps=5.4 q=62.0 size=       1KiB time=00:00:04.20 bitrate=   1.2kbits/s speed=0.181x elapsed=0:00:23.18    \nframe=  126 fps=5.3 q=62.0 size=       1KiB time=00:00:04.20 bitrate=   1.2kbits/s speed=0.177x elapsed=0:00:23.71    \n[out#0/webm @ 000002cbb2d99700] video:1366KiB audio:0KiB subtitle:0KiB other streams:0KiB global headers:0KiB muxing overhead: 0.126569%\nframe=  150 fps=6.3 q=62.0 Lsize=    1368KiB time=00:00:05.00 bitrate=2241.6kbits/s speed=0.209x elapsed=0:00:23.91    \n",
  "seconds": 24.17819046974182,
  "probe_out": {}
}